<svg id="Layer_1" data-name="Layer 1" xmlns="http://www.w3.org/2000/svg" viewBox="0 0 1024 1024"><defs><style>.cls-1{fill:#fff;}</style></defs><g id="AlphaPack"><path class="cls-1" d="M889.45,880.61A67.2,67.2,0,0,0,947.8,779.56L540.66,146.2a8.88,8.88,0,0,0-15,0L68.51,867A8.88,8.88,0,0,0,76,880.61H211.55a8.88,8.88,0,0,0,7.42-4L525.89,408.84a8.89,8.89,0,0,1,14.74-.17L759.72,726.36a14.93,14.93,0,0,1,0,15,15.1,15.1,0,0,1-13,7.52H582.21a8.88,8.88,0,0,1-7.41-13.77l44.26-67a8.89,8.89,0,0,0-.35-10.28l-72.58-95.16a8.89,8.89,0,0,0-14.55.6l-195,305a8.88,8.88,0,0,0,7.5,13.66Z"/></g></svg>