<svg id="Layer_1" data-name="Layer 1" xmlns="http://www.w3.org/2000/svg" viewBox="0 0 2048 425"><defs><style>.cls-1,.cls-2{fill:#fff;}.cls-2{font-size:464.83px;font-family:Serenity-Heavy, Serenity;font-weight:800;}.cls-3{letter-spacing:-0.02em;}</style></defs><g id="AlphaPack"><path class="cls-1" d="M449.94,376.16a28.73,28.73,0,0,0,24.92-43.24L300.46,62.2a3.79,3.79,0,0,0-6.4,0L98.83,370.67A3.79,3.79,0,0,0,102,376.5l58-.06a3.79,3.79,0,0,0,3.17-1.72L294.26,174.54a3.8,3.8,0,0,1,6.3-.08L394.4,310.24a6.42,6.42,0,0,1-5.56,9.64l-70.35.07a3.8,3.8,0,0,1-3.18-5.89l18.9-28.67a3.8,3.8,0,0,0-.15-4.4L303,240.32a3.8,3.8,0,0,0-6.22.26L213.47,371.09a3.8,3.8,0,0,0,3.21,5.84Z"/></g><text class="cls-2" transform="translate(523.09 377.89) rotate(-0.05)">ai<tspan class="cls-3" x="363.49" y="0">r</tspan><tspan x="515.95" y="0">ands</tspan></text></svg>