<svg id="Layer_1" data-name="Layer 1" xmlns="http://www.w3.org/2000/svg" viewBox="0 0 2048 1024"><defs><style>.cls-1{fill:#7fcbad;}.cls-2,.cls-3{fill:#fff;}.cls-3{font-size:353.35px;font-family:Serenity-Heavy, Serenity;font-weight:800;}.cls-4{letter-spacing:-0.02em;}</style></defs><rect class="cls-1" y="-0.5" width="2048" height="1024"/><g id="AlphaPack"><path class="cls-2" d="M584.28,604.4a21.85,21.85,0,0,0,18.94-32.87L470.65,365.74a2.89,2.89,0,0,0-4.87,0L317.37,600.23a2.88,2.88,0,0,0,2.44,4.43l44.07,0a2.92,2.92,0,0,0,2.41-1.31l99.64-152.17a2.88,2.88,0,0,1,4.79-.06l71.33,103.21a4.88,4.88,0,0,1-4.22,7.33l-53.48,0a2.9,2.9,0,0,1-2.42-4.48L496.3,535.4a2.87,2.87,0,0,0-.12-3.34l-23.62-30.92a2.89,2.89,0,0,0-4.73.2l-63.31,99.21A2.89,2.89,0,0,0,407,605Z"/></g><text class="cls-3" transform="matrix(1, 0, 0, 1, 639.88, 605.71)">ai<tspan class="cls-4" x="276.31" y="0">r</tspan><tspan x="392.21" y="0">ands</tspan></text></svg>