<svg id="Layer_1" data-name="Layer 1" xmlns="http://www.w3.org/2000/svg" viewBox="0 0 2048 644"><defs><style>.cls-1,.cls-2{fill:#fff;}.cls-2{font-size:353.35px;font-family:Serenity-Heavy, Serenity;font-weight:800;}.cls-3{letter-spacing:-0.02em;}</style></defs><rect y="1.5" width="2048" height="642"/><g id="AlphaPack"><path class="cls-1" d="M584.28,415.4a21.85,21.85,0,0,0,18.94-32.87L470.65,176.74a2.89,2.89,0,0,0-4.87,0L317.37,411.23a2.88,2.88,0,0,0,2.44,4.43l44.07,0a2.92,2.92,0,0,0,2.41-1.31l99.64-152.17a2.88,2.88,0,0,1,4.79-.06l71.33,103.21a4.88,4.88,0,0,1-4.22,7.33l-53.48.05a2.9,2.9,0,0,1-2.42-4.48L496.3,346.4a2.87,2.87,0,0,0-.12-3.34l-23.62-30.92a2.89,2.89,0,0,0-4.73.2l-63.31,99.21A2.89,2.89,0,0,0,407,416Z"/></g><text class="cls-2" transform="matrix(1, 0, 0, 1, 639.88, 416.71)">ai<tspan class="cls-3" x="276.31" y="0">r</tspan><tspan x="392.21" y="0">ands</tspan></text></svg>