<svg id="Layer_1" data-name="Layer 1" xmlns="http://www.w3.org/2000/svg" viewBox="0 0 2048 1024"><defs><style>.cls-1,.cls-2{fill:#7fcbad;}.cls-2{font-size:464.83px;font-family:Serenity-Heavy, Serenity;font-weight:800;}.cls-3{letter-spacing:-0.02em;}</style></defs><g id="AlphaPack"><path class="cls-1" d="M449.94,675.66a28.73,28.73,0,0,0,24.92-43.24L300.46,361.7a3.79,3.79,0,0,0-6.4,0L98.83,670.17A3.79,3.79,0,0,0,102,676l58-.06a3.79,3.79,0,0,0,3.17-1.72L294.26,474a3.8,3.8,0,0,1,6.3-.08L394.4,609.74a6.42,6.42,0,0,1-5.56,9.64l-70.35.07a3.8,3.8,0,0,1-3.18-5.89l18.9-28.67a3.8,3.8,0,0,0-.15-4.4L303,539.82a3.8,3.8,0,0,0-6.22.26L213.47,670.59a3.8,3.8,0,0,0,3.21,5.84Z"/></g><text class="cls-2" transform="translate(523.09 677.39) rotate(-0.05)">ai<tspan class="cls-3" x="363.49" y="0">r</tspan><tspan x="515.95" y="0">ands</tspan></text></svg>